<svg xmlns:xlink="http://www.w3.org/1999/xlink" width="512" xmlns="http://www.w3.org/2000/svg" height="512" id="screenshot-33eac058-d15b-8087-8001-9a7eb043277a" viewBox="0 0 512 512" style="-webkit-print-color-adjust: exact;" fill="none" version="1.1"><g id="shape-33eac058-d15b-8087-8001-9a7eb043277a" rx="0" ry="0"><g id="shape-33eac058-d15b-8087-8001-9a7eaad7b731" rx="0" ry="0"><g id="shape-33eac058-d15b-8087-8001-9a7e00ff862b" rx="0" ry="0" style="fill: rgb(0, 0, 0);"><g id="shape-33eac058-d15b-8087-8001-9a7e0103dd45"><g id="fills-33eac058-d15b-8087-8001-9a7e0103dd45"><path rx="0" ry="0" d="M256,0C260.6,0,265.2,1,269.4,2.9L457.7,82.8C479.7,92.1,496.1,113.8,496,140C495.5,239.2,454.7,420.7,282.3,503.2C265.6,511.2,246.2,511.2,229.5,503.2C57.3,420.7,16.5,239.2,16,140C15.9,113.8,32.3,92.1,54.3,82.8L242.7,2.9C246.8,1,251.4,0,256,0ZZ" style="fill: rgb(108, 112, 134); fill-opacity: 1;"/></g></g></g><g id="shape-33eac058-d15b-8087-8001-9a7e15ccabff" rx="0" ry="0" style="fill: rgb(0, 0, 0);"><g id="shape-33eac058-d15b-8087-8001-9a7e15d53c66"><g id="fills-33eac058-d15b-8087-8001-9a7e15d53c66"><path rx="0" ry="0" d="M153,147.214C153,137.14,161.133,129,171.2,129L335,129C345.067,129,353.2,137.14,353.2,147.214L353.2,165.429L382.32,165.429C406.435,165.429,426,185.009,426,209.143L426,267.258C426,284.561,415.819,300.214,400.065,307.215L353.2,328.048L353.2,347.571C353.2,367.664,336.877,384,316.8,384L189.4,384C169.323,384,153,367.664,153,347.571L153,147.214ZZM353.2,288.147L385.278,273.86C387.894,272.665,389.6,270.104,389.6,267.201L389.6,209.143C389.6,205.102,386.358,201.857,382.32,201.857L353.2,201.857L353.2,288.147ZZM225.8,192.75C225.8,187.741,221.705,183.643,216.7,183.643C211.695,183.643,207.6,187.741,207.6,192.75L207.6,320.25C207.6,325.259,211.695,329.357,216.7,329.357C221.705,329.357,225.8,325.259,225.8,320.25L225.8,192.75ZZM262.2,192.75C262.2,187.741,258.105,183.643,253.1,183.643C248.095,183.643,244,187.741,244,192.75L244,320.25C244,325.259,248.095,329.357,253.1,329.357C258.105,329.357,262.2,325.259,262.2,320.25L262.2,192.75ZZM298.6,192.75C298.6,187.741,294.505,183.643,289.5,183.643C284.495,183.643,280.4,187.741,280.4,192.75L280.4,320.25C280.4,325.259,284.495,329.357,289.5,329.357C294.505,329.357,298.6,325.259,298.6,320.25L298.6,192.75ZZ" style="fill: rgb(249, 226, 175); fill-opacity: 1;"/></g></g></g></g></g></svg>